<svg xmlns="http://www.w3.org/2000/svg" xmlns:xlink="http://www.w3.org/1999/xlink" width="500" zoomAndPan="magnify" viewBox="0 0 375 374.999991" height="500" preserveAspectRatio="xMidYMid meet" version="1.0"><rect x="-37.5" width="450" fill="#ffffff" y="-37.499999" height="449.999989" fill-opacity="1"/><path fill="#000000" d="M 125 13.890625 L 138.890625 13.890625 L 138.890625 41.667969 L 152.777344 41.667969 L 152.777344 55.554688 L 166.667969 55.554688 L 166.667969 111.109375 L 180.554688 111.109375 L 180.554688 125 L 166.667969 125 L 166.667969 138.890625 L 152.777344 138.890625 L 152.777344 97.222656 L 138.890625 97.222656 L 138.890625 111.109375 L 125 111.109375 L 125 83.332031 L 138.890625 83.332031 L 138.890625 69.445312 L 125 69.445312 Z M 208.332031 13.890625 L 250 13.890625 L 250 27.777344 L 222.222656 27.777344 L 222.222656 69.445312 L 236.109375 69.445312 L 236.109375 83.332031 L 208.332031 83.332031 L 208.332031 69.445312 L 194.445312 69.445312 L 194.445312 83.332031 L 180.554688 83.332031 L 180.554688 41.667969 L 166.667969 41.667969 L 166.667969 27.777344 L 208.332031 27.777344 Z M 194.445312 41.667969 L 208.332031 41.667969 L 208.332031 55.554688 L 194.445312 55.554688 Z M 236.109375 55.554688 L 250 55.554688 L 250 69.445312 L 236.109375 69.445312 Z M 236.109375 83.332031 L 250 83.332031 L 250 138.890625 L 263.890625 138.890625 L 263.890625 166.667969 L 277.777344 166.667969 L 277.777344 194.445312 L 263.890625 194.445312 L 263.890625 180.554688 L 250 180.554688 L 250 152.777344 L 236.109375 152.777344 L 236.109375 180.554688 L 222.222656 180.554688 L 222.222656 194.445312 L 208.332031 194.445312 L 208.332031 166.667969 L 194.445312 166.667969 L 194.445312 152.777344 L 208.332031 152.777344 L 208.332031 97.222656 L 222.222656 97.222656 L 222.222656 138.890625 L 236.109375 138.890625 Z M 180.554688 97.222656 L 194.445312 97.222656 L 194.445312 111.109375 L 180.554688 111.109375 Z M 13.890625 125 L 41.667969 125 L 41.667969 138.890625 L 27.777344 138.890625 L 27.777344 152.777344 L 69.445312 152.777344 L 69.445312 166.667969 L 83.332031 166.667969 L 83.332031 180.554688 L 125 180.554688 L 125 194.445312 L 83.332031 194.445312 L 83.332031 208.332031 L 125 208.332031 L 125 222.222656 L 83.332031 222.222656 L 83.332031 236.109375 L 125 236.109375 L 125 250 L 69.445312 250 L 69.445312 222.222656 L 55.554688 222.222656 L 55.554688 236.109375 L 41.667969 236.109375 L 41.667969 194.445312 L 27.777344 194.445312 L 27.777344 208.332031 L 13.890625 208.332031 Z M 55.554688 180.554688 L 69.445312 180.554688 L 69.445312 208.332031 L 55.554688 208.332031 Z M 69.445312 125 L 111.109375 125 L 111.109375 138.890625 L 83.332031 138.890625 L 83.332031 152.777344 L 69.445312 152.777344 Z M 180.554688 125 L 194.445312 125 L 194.445312 138.890625 L 180.554688 138.890625 Z M 277.777344 125 L 291.667969 125 L 291.667969 138.890625 L 277.777344 138.890625 Z M 305.554688 125 L 361.109375 125 L 361.109375 138.890625 L 347.222656 138.890625 L 347.222656 152.777344 L 333.332031 152.777344 L 333.332031 138.890625 L 319.445312 138.890625 L 319.445312 152.777344 L 333.332031 152.777344 L 333.332031 166.667969 L 347.222656 166.667969 L 347.222656 180.554688 L 361.109375 180.554688 L 361.109375 194.445312 L 347.222656 194.445312 L 347.222656 208.332031 L 333.332031 208.332031 L 333.332031 194.445312 L 305.554688 194.445312 L 305.554688 180.554688 L 319.445312 180.554688 L 319.445312 166.667969 L 305.554688 166.667969 L 305.554688 152.777344 L 291.667969 152.777344 L 291.667969 138.890625 L 305.554688 138.890625 Z M 125 138.890625 L 138.890625 138.890625 L 138.890625 152.777344 L 166.667969 152.777344 L 166.667969 166.667969 L 152.777344 166.667969 L 152.777344 180.554688 L 125 180.554688 Z M 97.222656 152.777344 L 111.109375 152.777344 L 111.109375 166.667969 L 97.222656 166.667969 Z M 277.777344 152.777344 L 291.667969 152.777344 L 291.667969 166.667969 L 277.777344 166.667969 Z M 180.554688 166.667969 L 194.445312 166.667969 L 194.445312 194.445312 L 208.332031 194.445312 L 208.332031 208.332031 L 180.554688 208.332031 L 180.554688 194.445312 L 166.667969 194.445312 L 166.667969 180.554688 L 180.554688 180.554688 Z M 125 194.445312 L 138.890625 194.445312 L 138.890625 208.332031 L 125 208.332031 Z M 152.777344 194.445312 L 166.667969 194.445312 L 166.667969 208.332031 L 152.777344 208.332031 Z M 222.222656 194.445312 L 250 194.445312 L 250 222.222656 L 236.109375 222.222656 L 236.109375 236.109375 L 208.332031 236.109375 L 208.332031 222.222656 L 222.222656 222.222656 Z M 291.667969 194.445312 L 305.554688 194.445312 L 305.554688 208.332031 L 333.332031 208.332031 L 333.332031 222.222656 L 347.222656 222.222656 L 347.222656 236.109375 L 333.332031 236.109375 L 333.332031 250 L 305.554688 250 L 305.554688 277.777344 L 361.109375 277.777344 L 361.109375 291.667969 L 333.332031 291.667969 L 333.332031 305.554688 L 361.109375 305.554688 L 361.109375 319.445312 L 347.222656 319.445312 L 347.222656 347.222656 L 361.109375 347.222656 L 361.109375 361.109375 L 319.445312 361.109375 L 319.445312 347.222656 L 277.777344 347.222656 L 277.777344 333.332031 L 305.554688 333.332031 L 305.554688 319.445312 L 319.445312 319.445312 L 319.445312 333.332031 L 333.332031 333.332031 L 333.332031 319.445312 L 319.445312 319.445312 L 319.445312 305.554688 L 291.667969 305.554688 L 291.667969 319.445312 L 277.777344 319.445312 L 277.777344 333.332031 L 263.890625 333.332031 L 263.890625 361.109375 L 250 361.109375 L 250 319.445312 L 208.332031 319.445312 L 208.332031 305.554688 L 236.109375 305.554688 L 236.109375 236.109375 L 277.777344 236.109375 L 277.777344 222.222656 L 263.890625 222.222656 L 263.890625 208.332031 L 291.667969 208.332031 Z M 305.554688 222.222656 L 319.445312 222.222656 L 319.445312 236.109375 L 305.554688 236.109375 Z M 250 250 L 291.667969 250 L 291.667969 291.667969 L 250 291.667969 Z M 138.890625 208.332031 L 152.777344 208.332031 L 152.777344 222.222656 L 138.890625 222.222656 Z M 166.667969 208.332031 L 180.554688 208.332031 L 180.554688 236.109375 L 194.445312 236.109375 L 194.445312 250 L 180.554688 250 L 180.554688 263.890625 L 194.445312 263.890625 L 194.445312 277.777344 L 180.554688 277.777344 L 180.554688 291.667969 L 152.777344 291.667969 L 152.777344 305.554688 L 180.554688 305.554688 L 180.554688 319.445312 L 208.332031 319.445312 L 208.332031 333.332031 L 180.554688 333.332031 L 180.554688 347.222656 L 166.667969 347.222656 L 166.667969 333.332031 L 152.777344 333.332031 L 152.777344 347.222656 L 166.667969 347.222656 L 166.667969 361.109375 L 125 361.109375 L 125 333.332031 L 138.890625 333.332031 L 138.890625 305.554688 L 125 305.554688 L 125 277.777344 L 138.890625 277.777344 L 138.890625 263.890625 L 125 263.890625 L 125 250 L 152.777344 250 L 152.777344 277.777344 L 166.667969 277.777344 Z M 125 222.222656 L 138.890625 222.222656 L 138.890625 236.109375 L 125 236.109375 Z M 13.890625 236.109375 L 41.667969 236.109375 L 41.667969 250 L 13.890625 250 Z M 263.890625 263.890625 L 277.777344 263.890625 L 277.777344 277.777344 L 263.890625 277.777344 Z M 180.554688 291.667969 L 208.332031 291.667969 L 208.332031 305.554688 L 180.554688 305.554688 Z M 222.222656 333.332031 L 236.109375 333.332031 L 236.109375 361.109375 L 208.332031 361.109375 L 208.332031 347.222656 L 222.222656 347.222656 Z M 222.222656 333.332031 " fill-opacity="1" fill-rule="evenodd"/><path fill="#000000" d="M 13.890625 13.890625 L 111.109375 13.890625 L 111.109375 111.109375 L 13.890625 111.109375 Z M 27.777344 27.777344 L 97.222656 27.777344 L 97.222656 97.222656 L 27.777344 97.222656 Z M 41.667969 41.667969 L 83.332031 41.667969 L 83.332031 83.332031 L 41.667969 83.332031 Z M 263.890625 13.890625 L 361.109375 13.890625 L 361.109375 111.109375 L 263.890625 111.109375 Z M 277.777344 27.777344 L 347.222656 27.777344 L 347.222656 97.222656 L 277.777344 97.222656 Z M 291.667969 41.667969 L 333.332031 41.667969 L 333.332031 83.332031 L 291.667969 83.332031 Z M 13.890625 263.890625 L 111.109375 263.890625 L 111.109375 361.109375 L 13.890625 361.109375 Z M 27.777344 277.777344 L 97.222656 277.777344 L 97.222656 347.222656 L 27.777344 347.222656 Z M 41.667969 291.667969 L 83.332031 291.667969 L 83.332031 333.332031 L 41.667969 333.332031 Z M 41.667969 291.667969 " fill-opacity="1" fill-rule="evenodd"/></svg>